<svg id="eccomerce-web" xmlns="http://www.w3.org/2000/svg" width="472" height="434.001" viewBox="0 0 472 434.001">
  <path id="Trazado_1" data-name="Trazado 1" d="M472,109.43V40.777C472,18.176,454.3,0,432.547,0H39.449C17.7,0,0,18.176,0,40.777V357.691C0,380.3,17.7,399,39.449,399H230.371l7.6,13.383A42.342,42.342,0,0,0,275.109,434H316a42.279,42.279,0,0,0,41.922-35h74.625C454.3,399,472,380.3,472,357.691V109.43ZM39.449,16h393.1C445.477,16,456,27,456,40.777V102H16V40.777C16,27,26.52,16,39.449,16ZM316,418H275.109a26.479,26.479,0,0,1-23.16-13.566l-33.09-59.359a11.049,11.049,0,0,1,14.031,2.117L243.1,358.91a8,8,0,0,0,14.027-5.254c-.02-28.672-.023-66.2.023-85.4A2.4,2.4,0,0,1,259.781,266H263.7a2.379,2.379,0,0,1,2.641,2.262c0,4.629-.281,67.023-.285,67.652,0,.352-.055.723-.055,1.059v3.281a8,8,0,0,0,16,0V321.031A1.249,1.249,0,0,1,283.18,320h7.973a.943.943,0,0,1,.848,1.031v25.484a8,8,0,0,0,16,0V327.289c0-.52.594-1.289,1.109-1.289h7.9c.52,0,.988.77.988,1.289v19.227a8,8,0,0,0,16,0v-2.875a3.046,3.046,0,0,1,.613-2.086,1.354,1.354,0,0,1,1.094-.352l4.191.012a2.5,2.5,0,0,1,2.629,2.48c.043,16.473.281,16.773.266,24.867-.008,4.184.207,10.465.207,22.1v.977C343,406.293,330.609,418,316,418ZM191.742,300a14.878,14.878,0,0,1-11.074-4.93,12.713,12.713,0,0,1-3.148-9.867L187.645,197H196v21.02a8,8,0,0,0,16,0V197h50v21.02a8,8,0,0,0,16,0V197h6.895l10.125,88.152a12.446,12.446,0,0,1-3.148,9.738,14.711,14.711,0,0,1-9.6,4.785c.039-14.922.074-29.281.07-31.453A18.262,18.262,0,0,0,263.7,250h-3.914a18.367,18.367,0,0,0-18.637,18.316c-.02,8-.031,18.684-.035,31.684ZM262,181H212v-7.535c0-12.8,11.238-23.207,25-23.207s25,10.41,25,23.207ZM432.547,383H358.531c.008-7,.016-11.145.023-14.246.016-8.121.016-8.5-.031-25.023a18.621,18.621,0,0,0-18.629-18.477l-4.2-.031c-.629,0-1.246-.152-1.859-.09A17.127,17.127,0,0,0,317.012,310h-7.9a16.943,16.943,0,0,0-4.371.746,16.594,16.594,0,0,0-3.062-3.062,29.527,29.527,0,0,0,2.137-2.117,28.4,28.4,0,0,0,7.1-22.117l-10.937-95.223A8.123,8.123,0,0,0,292.027,181H278v-7.535c0-21.617-18.414-39.207-41-39.207s-41,17.59-41,39.207V181H180.512a8.137,8.137,0,0,0-7.949,7.234L161.621,283.4a28.776,28.776,0,0,0,7.1,22.285A30.931,30.931,0,0,0,191.742,316h49.367v17.215a27.1,27.1,0,0,0-33.836.652l-3.652,2.777a8.189,8.189,0,0,0-2.117,10.383L221.461,383H39.449C26.52,383,16,371.473,16,357.691V118H456V357.691C456,371.473,445.477,383,432.547,383Zm0,0" fill="#fff"/>
  <path id="Trazado_2" data-name="Trazado 2" d="M123.309,87.27c15.973,0,28.969-13.457,28.969-30s-13-29.992-28.969-29.992-28.965,13.457-28.965,30S107.34,87.27,123.309,87.27Zm0-43.992c7.152,0,12.969,6.281,12.969,14s-5.816,14-12.969,14-12.965-6.277-12.965-14S116.16,43.277,123.309,43.277Zm0,0" fill="#fff"/>
  <path id="Trazado_3" data-name="Trazado 3" d="M191.449,87.27c15.973,0,28.965-13.457,28.965-30s-12.992-29.992-28.965-29.992-28.969,13.457-28.969,30S175.477,87.27,191.449,87.27Zm0-43.992c7.148,0,12.965,6.281,12.965,14s-5.816,14-12.965,14S178.48,65,178.48,57.273,184.3,43.277,191.449,43.277Zm0,0" fill="#fff"/>
  <path id="Trazado_4" data-name="Trazado 4" d="M55.172,87.27c15.973,0,28.965-13.457,28.965-30S71.145,27.277,55.172,27.277s-28.965,13.457-28.965,30S39.2,87.27,55.172,87.27Zm0-43.992c7.148,0,12.965,6.281,12.965,14s-5.816,14-12.965,14S42.207,65,42.207,57.273,48.023,43.277,55.172,43.277Zm0,0" fill="#fff"/>
</svg>
