<svg id="Page-1" xmlns="http://www.w3.org/2000/svg" width="434" height="434" viewBox="0 0 434 434">
  <g id="_022---360-Degree-View" data-name="022---360-Degree-View" transform="translate(0 0)">
    <path id="Shape" d="M347.2,82.663V28.933A28.933,28.933,0,0,0,318.267,0H115.733A28.933,28.933,0,0,0,86.8,28.933V82.663C24.044,102.344,2.271,131.647,1.36,132.92A8.116,8.116,0,0,0,0,137.079V354.433a7.233,7.233,0,0,0,1.36,4.224c.665.919,16.738,22.771,60.926,41.433a7.233,7.233,0,0,0,10.047-6.669V320.133q7.053-2.792,14.467-5.237v90.171A28.933,28.933,0,0,0,115.733,434H318.267A28.933,28.933,0,0,0,347.2,405.067V314.9q7.421,2.467,14.467,5.28v73.245a7.233,7.233,0,0,0,10.047,6.669c44.188-18.662,60.261-40.507,60.926-41.433a8.166,8.166,0,0,0,1.36-4.514v-217a7.233,7.233,0,0,0-1.353-4.224c-.919-1.273-22.691-30.575-85.447-50.257ZM57.867,315.1v67.125a137.7,137.7,0,0,1-43.4-30.38V154.858a183.315,183.315,0,0,0,43.4,26.308ZM86.8,299.7q-7.378,2.322-14.467,4.948V176.421a7.233,7.233,0,0,0-4.42-6.662,156.537,156.537,0,0,1-51.169-32.47C24.528,129.332,45.5,111.495,86.8,97.8ZM272.639,14.467l-9.273,9.9a14.525,14.525,0,0,1-10.561,4.571H181.2a14.467,14.467,0,0,1-10.553-4.571l-9.273-9.9Zm60.095,390.6a14.467,14.467,0,0,1-14.467,14.467H115.733a14.467,14.467,0,0,1-14.467-14.467V393.812a28.637,28.637,0,0,0,14.467,4.022H318.267a28.637,28.637,0,0,0,14.467-4.022Zm0-36.167a14.467,14.467,0,0,1-14.467,14.467H115.733A14.467,14.467,0,0,1,101.267,368.9V28.933a14.467,14.467,0,0,1,14.467-14.467h25.8L160.088,34.25A29.013,29.013,0,0,0,181.2,43.4H252.8a29.078,29.078,0,0,0,21.114-9.143l18.546-19.79h25.8a14.467,14.467,0,0,1,14.467,14.467Zm33.353-199.141a7.233,7.233,0,0,0-4.42,6.662v128.24c-4.68-1.758-9.519-3.414-14.467-4.962V97.8c41.324,13.7,62.286,31.573,70.055,39.487a156.486,156.486,0,0,1-51.169,32.47Zm53.447,181.434-.065.188a6.762,6.762,0,0,0-.2.723,138.88,138.88,0,0,1-43.14,30.12V181.137a183.314,183.314,0,0,0,43.4-26.308Z" transform="translate(0 0)" fill="#fff"/>
    <path id="Shape-2" data-name="Shape" d="M45.006,118.247A28.933,28.933,0,0,0,64.123,67.614a28.933,28.933,0,1,0-46.6-30.85,7.242,7.242,0,1,0,13.743,4.571A14.467,14.467,0,1,1,45.006,60.38a7.233,7.233,0,0,0,0,14.467A14.467,14.467,0,1,1,31.262,93.892a7.242,7.242,0,1,0-13.743,4.571,28.89,28.89,0,0,0,27.487,19.783Z" transform="translate(106.894 105.986)" fill="#fff"/>
    <path id="Shape-3" data-name="Shape" d="M83.906,85.686a30.937,30.937,0,0,0-28.933-32.55,25.837,25.837,0,0,0-9.6,1.982A39.783,39.783,0,0,1,65.172,30.8a7.233,7.233,0,0,0-5.931-13.194C26.416,32.34,26.04,80.044,26.04,82.07a7.067,7.067,0,0,0,.224,1.114c-.058.839-.224,1.649-.224,2.5a30.937,30.937,0,0,0,28.933,32.55A30.937,30.937,0,0,0,83.906,85.686ZM54.973,103.77A16.637,16.637,0,0,1,40.506,85.686,16.637,16.637,0,0,1,54.973,67.6,16.637,16.637,0,0,1,69.44,85.686,16.637,16.637,0,0,1,54.973,103.77Z" transform="translate(162.027 105.997)" fill="#fff"/>
    <path id="Shape-4" data-name="Shape" d="M63.933,17A28.933,28.933,0,0,0,35,45.933v43.4a28.933,28.933,0,0,0,57.867,0v-43.4A28.933,28.933,0,0,0,63.933,17ZM78.4,89.333a14.467,14.467,0,1,1-28.933,0v-43.4a14.467,14.467,0,0,1,28.933,0Z" transform="translate(218.167 105.967)" fill="#fff"/>
    <path id="Shape-5" data-name="Shape" d="M90.753,35.056a83.965,83.965,0,0,0-58.286,23.19V49.255a7.233,7.233,0,0,0-14.467,0V78.188a7.233,7.233,0,0,0,7.233,7.233H54.167a7.233,7.233,0,0,0,0-14.467H40.105A69.028,69.028,0,0,1,89.936,49.5a7.245,7.245,0,1,0,.817-14.467Z" transform="translate(112.2 218.379)" fill="#fff"/>
    <path id="Shape-6" data-name="Shape" d="M103.356,41.979a7.233,7.233,0,0,0-7.233,7.233v8.977A83.95,83.95,0,0,0,37.836,35.042a7.245,7.245,0,1,0,.81,14.467,68.963,68.963,0,0,1,49.794,21.4H74.422a7.233,7.233,0,0,0,0,14.467h28.933a7.233,7.233,0,0,0,7.233-7.233V49.212A7.233,7.233,0,0,0,103.356,41.979Z" transform="translate(193.211 218.421)" fill="#fff"/>
  </g>
</svg>
